# xmcd
#
# Track frame offsets:
#	150
#	35896
#	81998
#	116693
#	142367
#	171837
#	203665
#
# Disc length: 3322 seconds
#
# Revision: 1
# Processed by: cddbd v1.5.2PL0 Copyright (c) Steve Scherf et al.
# Submitted via: audiograbber 1.83.01
#
DISCID=690cf807
DTITLE=Johnny Winter With Dr. John - Live In Sweden 1987
DYEAR=1987
DGENRE=Blues
TTITLE0=Sound The Bell
TTITLE1=Don't Take Advantage Of Me
TTITLE2=Mojo Boogie
TTITLE3=You Lie Too Much
TTITLE4=Sugar Sweet
TTITLE5=Love Life and Money
TTITLE6=Jumpin' Jack Flash
EXTD=
EXTT0=
EXTT1=
EXTT2=
EXTT3=
EXTT4=
EXTT5=
EXTT6=
PLAYORDER=
